<svg width="48" height="48" fill="none" xmlns="http://www.w3.org/2000/svg"><g id="Icon/Fill/facebook"><path id="Mask" fill-rule="evenodd" clip-rule="evenodd" d="M34 7c0-.552-.45-1-1-1h-5c-5.524 0-10 4.03-10 9v5.4h-5a1 1 0 00-1 1v5.2a1 1 0 001 1h5V41a1 1 0 001 1h6c.55 0 1-.448 1-1V27.6h5.238c.45 0 .844-.3.966-.732l1.442-5.2a1 1 0 00-.962-1.268H26V15c0-.994.894-1.8 2-1.8h5c.55 0 1-.448 1-1V7z" fill="#231F20"/><mask id="mask0_38_50" style="mask-type:luminance" maskUnits="userSpaceOnUse" x="12" y="6" width="22" height="36"><path id="Mask_2" fill-rule="evenodd" clip-rule="evenodd" d="M34 7c0-.552-.45-1-1-1h-5c-5.524 0-10 4.03-10 9v5.4h-5a1 1 0 00-1 1v5.2a1 1 0 001 1h5V41a1 1 0 001 1h6c.55 0 1-.448 1-1V27.6h5.238c.45 0 .844-.3.966-.732l1.442-5.2a1 1 0 00-.962-1.268H26V15c0-.994.894-1.8 2-1.8h5c.55 0 1-.448 1-1V7z" fill="#fff"/></mask><g mask="url(#mask0_38_50)"><g id="🎨 Color"><path id="Base" fill="#E2B024" d="M0 0h48v48H0z"/></g></g></g></svg>