<svg width="48" height="48" fill="none" xmlns="http://www.w3.org/2000/svg"><g id="Icon/Fill/linkedin"><path id="Mask" fill-rule="evenodd" clip-rule="evenodd" d="M6 10.5C6 8.016 8.016 6 10.5 6S15 8.016 15 10.5 12.984 15 10.5 15A4.502 4.502 0 016 10.5zm24.3 6.3c-6.46 0-11.7 5.21-11.7 11.63V40.2c0 .994.808 1.802 1.802 1.802H24.6c.994 0 1.802-.808 1.802-1.802V28.43c0-2.272 1.968-4.088 4.304-3.854 2.028.202 3.494 2.056 3.494 4.094V40.2c0 .994.808 1.802 1.802 1.802H40.2c.994 0 1.802-.808 1.802-1.802V28.43c0-6.42-5.24-11.628-11.7-11.628zm-17.1 1.8H7.8A1.8 1.8 0 006 20.4v19.8c0 .994.808 1.8 1.802 1.8H13.2a1.8 1.8 0 001.8-1.8V20.4a1.8 1.8 0 00-1.8-1.8z" fill="#231F20"/><mask id="mask0_38_54" style="mask-type:luminance" maskUnits="userSpaceOnUse" x="5" y="6" width="38" height="37"><path id="Mask_2" fill-rule="evenodd" clip-rule="evenodd" d="M6 10.5C6 8.016 8.016 6 10.5 6S15 8.016 15 10.5 12.984 15 10.5 15A4.502 4.502 0 016 10.5zm24.3 6.3c-6.46 0-11.7 5.21-11.7 11.63V40.2c0 .994.808 1.802 1.802 1.802H24.6c.994 0 1.802-.808 1.802-1.802V28.43c0-2.272 1.968-4.088 4.304-3.854 2.028.202 3.494 2.056 3.494 4.094V40.2c0 .994.808 1.802 1.802 1.802H40.2c.994 0 1.802-.808 1.802-1.802V28.43c0-6.42-5.24-11.628-11.7-11.628zm-17.1 1.8H7.8A1.8 1.8 0 006 20.4v19.8c0 .994.808 1.8 1.802 1.8H13.2a1.8 1.8 0 001.8-1.8V20.4a1.8 1.8 0 00-1.8-1.8z" fill="#fff"/></mask><g mask="url(#mask0_38_54)"><g id="🎨 Color"><path id="Base" fill="#E2B024" d="M0 0h48v48H0z"/></g></g></g></svg>